#!OML:ASF E:\emotionWalksFemale\Project 1\Capture day 1\Session 1\Female1.ASF
:FULLY-SPECIFIED
:DEGREES
699
root 10.3831 15.0286 -4.69845 173.543 6.88449 183.214
lowerback 0.674359 -7.08475 3.27254
upperback -6.35837 -8.4326 5.6192
thorax -6.65583 -3.92151 4.57713
lowerneck -1.7433 11.8423 8.15949
upperneck 3.63936 15.8397 -5.49349
head 2.67459 7.93181 -2.57511
rclavicle 1.82882e-014 6.99722e-014
rhumerus -62.6714 -23.9496 -28.1383
rradius 33.273
rwrist 4.41243
rhand 2.33383 -56.4891
rfingers 7.12502
rthumb 27.8238 -84.4491
lclavicle 1.82882e-014 6.99722e-014
lhumerus -55.0431 26.5257 61.618
lradius 27.2612
lwrist -29.6864
lhand -9.98383 -21.9501
lfingers 7.12502
lthumb 15.9992 7.40927
rfemur -7.88079 9.94065 35.0567
rtibia 31.7598
rfoot -18.8366 -16.2174
rtoes 3.53954
lfemur -1.71846 12.9914 -15.5749
ltibia 71.0075
lfoot 3.93265 -4.52767
ltoes -25.6476
700
root 10.382 15.025 -4.83674 173.506 7.32568 183.132
lowerback 0.73786 -6.97945 3.3384
upperback -6.29068 -8.30637 5.53704
thorax -6.64714 -3.87103 4.4517
lowerneck -1.5364 11.863 8.36196
upperneck 3.49474 15.8742 -5.57361
head 2.61877 7.95215 -2.6491
rclavicle -3.02153e-014 -8.5875e-014
rhumerus -61.7987 -23.4272 -29.7806
rradius 33.3384
rwrist 4.79524
rhand 3.1478 -56.9426
rfingers 7.12502
rthumb 28.6018 -84.7741
lclavicle -3.02153e-014 -8.5875e-014
lhumerus -54.8629 25.6837 62.5519
lradius 27.1542
lwrist -29.8353
lhand -6.09002 -21.2972
lfingers 7.12502
lthumb 19.7458 7.71988
rfemur -7.25949 9.91078 35.0407
rtibia 31.846
rfoot -19.5404 -16.0146
rtoes 5.58824
lfemur -3.39511 12.9167 -15.6544
ltibia 72.1361
lfoot 2.45715 -4.42145
ltoes -27.0511
701
root 10.383 15.0295 -4.97374 173.504 7.7949 183.001
lowerback 0.823959 -6.95793 3.17735
upperback -6.40716 -8.26186 5.60238
thorax -6.7899 -3.83275 4.62596
lowerneck -0.356744 11.9089 8.30808
upperneck 2.85316 16.0153 -5.66159
head 2.20608 8.03736 -2.7586
rclavicle 1.05753e-013 -5.725e-014
rhumerus -60.7713 -22.3958 -31.3897
rradius 33.3637
rwrist 5.03748
rhand 3.62429 -56.9875
rfingers 7.12502
rthumb 29.0569 -84.7414
lclavicle 1.05753e-013 -5.725e-014
lhumerus -55.046 24.56 63.8575
lradius 27.3033
lwrist -29.2987
lhand -2.45763 -20.6104
lfingers 7.12502
lthumb 23.2344 8.00793
rfemur -6.7037 10.0169 34.9818
rtibia 32.0053
rfoot -20.1179 -15.9268
rtoes 6.12528
lfemur -5.11173 12.8714 -15.8123
ltibia 73.0275
lfoot 1.02705 -3.95902
ltoes -30.0661
702
root 10.385 15.0336 -5.11134 173.499 8.1887 182.869
lowerback 0.816087 -6.76686 3.14601
upperback -6.25587 -8.04583 5.49066
thorax -6.64335 -3.74019 4.49711
lowerneck -0.543131 11.8871 8.24858
upperneck 2.68899 15.9578 -5.58249
head 2.16605 8.00313 -2.71973
rclavicle -4.85035e-014 1.59028e-015
rhumerus -60.0476 -22.097 -32.9148
rradius 33.5291
rwrist 5.0063
rhand 3.46527 -56.8166
rfingers 7.12502
rthumb 28.9051 -84.5966
lclavicle -4.85035e-014 1.59028e-015
lhumerus -54.3132 22.876 65.821
lradius 27.601
lwrist -28.4798
lhand 1.067 -20.2586
lfingers 7.12502
lthumb 26.612 7.89133
rfemur -6.17426 10.0719 34.906
rtibia 32.2051
rfoot -20.5631 -15.9836
rtoes 4.14899
lfemur -6.68952 12.612 -16.0068
ltibia 73.7325
lfoot -0.474281 -3.16749
ltoes -30.4398
703
root 10.3841 15.0297 -5.24548 173.483 8.51097 182.656
lowerback 0.808249 -6.64957 3.06636
upperback -6.17868 -7.92254 5.3783
thorax -6.56495 -3.68802 4.40691
lowerneck -0.971474 11.9501 8.16513
upperneck 3.07559 16.0132 -5.3981
head 2.34883 8.02698 -2.60292
rclavicle 1.59028e-015 7.95139e-015
rhumerus -59.307 -21.755 -34.2248
rradius 33.7146
rwrist 5.12465
rhand 3.61261 -56.572
rfingers 7.12502
rthumb 29.0458 -84.3279
lclavicle 1.59028e-015 7.95139e-015
lhumerus -53.8229 21.3187 67.5566
lradius 27.9113
lwrist -27.9413
lhand 4.53048 -20.3926
lfingers 7.12502
lthumb 29.922 7.20871
rfemur -5.65626 10.1517 34.7258
rtibia 32.3888
rfoot -20.9592 -16.1096
rtoes 2.11282
lfemur -8.13008 12.1644 -16.3307
ltibia 74.2525
lfoot -2.4846 -2.3716
ltoes -29.2467
704
root 10.3827 15.0244 -5.37923 173.443 8.78883 182.419
lowerback 0.809246 -6.54667 2.99293
upperback -6.09624 -7.82377 5.22428
thorax -6.49138 -3.65101 4.27274
lowerneck -1.26088 11.983 8.39927
upperneck 3.38865 16.0486 -5.5325
head 2.54563 8.04322 -2.65198
rclavicle 1.49486e-013 2.54444e-014
rhumerus -58.5931 -21.5641 -35.3981
rradius 33.9021
rwrist 5.46491
rhand 3.96616 -56.2641
rfingers 7.12502
rthumb 29.3834 -83.9613
lclavicle 1.49486e-013 2.54444e-014
lhumerus -53.5001 19.8127 69.1468
lradius 28.4279
lwrist -27.6903
lhand 7.1415 -20.9941
lfingers 7.12502
lthumb 32.4104 6.12864
rfemur -5.06454 10.2665 34.5298
rtibia 32.5037
rfoot -21.2984 -16.281
rtoes 0.786672
lfemur -9.55386 11.691 -16.7022
ltibia 74.5769
lfoot -4.51598 -1.47175
ltoes -29.1952
705
root 10.3831 15.0265 -5.51645 173.396 9.08941 182.281
lowerback 0.844142 -6.47742 2.89658
upperback -6.06168 -7.74409 5.20825
thorax -6.46607 -3.61088 4.30409
lowerneck -1.05424 11.9672 8.58508
upperneck 3.27598 16.0635 -5.91288
head 2.52963 8.05313 -2.82097
rclavicle 1.308e-013 -5.40694e-014
rhumerus -57.7861 -21.1458 -36.5077
rradius 34.1729
rwrist 5.7566
rhand 3.62914 -56.2377
rfingers 7.12502
rthumb 29.0616 -83.9909
lclavicle 1.308e-013 -5.40694e-014
lhumerus -53.1979 17.8316 71.3056
lradius 29.1169
lwrist -26.9856
lhand 8.07737 -21.7129
lfingers 7.12502
lthumb 33.3006 5.22338
rfemur -4.39351 10.3935 34.4463
rtibia 32.5074
rfoot -21.5171 -16.4748
rtoes -0.834823
lfemur -10.9535 11.2892 -16.9579
ltibia 74.6972
lfoot -6.07435 -0.299111
ltoes -29.5881
706
root 10.3837 15.033 -5.65408 173.392 9.45904 182.323
lowerback 0.891568 -6.46504 2.8775
upperback -6.0878 -7.70729 5.33209
thorax -6.50389 -3.58292 4.4492
lowerneck -0.754493 12.083 8.15142
upperneck 3.25578 16.2304 -5.52843
head 2.39892 8.14067 -2.63805
rclavicle -7.196e-014 2.70347e-014
rhumerus -56.8612 -20.5872 -37.4833
rradius 34.3706
rwrist 6.12855
rhand 3.21237 -56.1607
rfingers 7.12502
rthumb 28.6635 -83.9819
lclavicle -7.196e-014 2.70347e-014
lhumerus -52.9853 15.501 73.7874
lradius 29.8658
lwrist -25.8995
lhand 8.03718 -22.1238
lfingers 7.12502
lthumb 33.2624 4.82069
rfemur -3.67413 10.618 34.5697
rtibia 32.362
rfoot -21.6437 -16.5925
rtoes -2.07857
lfemur -12.3149 10.9667 -16.9845
ltibia 74.6606
lfoot -7.53089 1.09934
ltoes -31.1359
707
root 10.3832 15.0405 -5.78889 173.372 9.8651 182.411
lowerback 0.92271 -6.4178 2.99856
upperback -6.06537 -7.62912 5.39204
thorax -6.51077 -3.54634 4.44399
lowerneck -0.617248 12.1966 7.82309
upperneck 3.37891 16.3806 -5.12452
head 2.35213 8.21878 -2.45388
rclavicle -9.54166e-015 7.95139e-014
rhumerus -56.0513 -20.2077 -38.4311
rradius 34.5973
rwrist 6.35339
rhand 3.19011 -55.4947
rfingers 7.12502
rthumb 28.6422 -83.3194
lclavicle -9.54166e-015 7.95139e-014
lhumerus -53.0523 13.4431 75.9031
lradius 30.9374
lwrist -25.1241
lhand 8.50648 -22.1379
lfingers 7.12502
lthumb 33.7084 4.7101
rfemur -2.89834 10.9405 34.7594
rtibia 32.1116
rfoot -21.8596 -16.5553
rtoes -1.8679
lfemur -13.5942 10.4931 -16.9232
ltibia 74.3972
lfoot -9.12907 2.35524
ltoes -30.9392
